<?xml version="1.0" encoding="utf-8"?>
<svg width="40.429474" height="29.65316" id="svg8258" version="1.0" xmlns="http://www.w3.org/2000/svg">
  <g id="layer1" transform="translate(-322.3422,-324.36866)">
    <g transform="matrix(0.4333292,-0.3342014,0.3342014,0.4333292,-354.30886,610.51768)" id="g4607" style="display:inline">
      <g id="g4609" transform="matrix(0.9240741,0.7016441,-0.7016441,0.9240741,2048.8256,36.511712)">
        <path id="path4611" d="M -324.52189,633.42736 L -304.19184,633.24155 L -293.28137,617.61991 L -303.58192,601.29731 L -322.9018,601.48643 L -333.05343,616.73175 L -324.52189,633.42736 z" style="fill:#b3b3b3;fill-opacity:1;fill-rule:evenodd;stroke:#000000;stroke-width:1px;stroke-linecap:butt;stroke-linejoin:round;stroke-opacity:1"/>
        <path id="path4615" d="M -324.01681,633.42902 L -313.73685,617.55277 L -293.28054,617.36737 L -304.44479,633.36699 L -324.01681,633.42902 z" style="fill:#ececec;fill-opacity:1;fill-rule:evenodd;stroke:#000000;stroke-width:1px;stroke-linecap:butt;stroke-linejoin:round;stroke-opacity:1"/>
        <path id="path4617" d="M -293.53266,617.24027 L -303.70735,601.04435 L -322.90222,601.6127 L -313.98939,617.55194 L -293.53266,617.24027 z" style="fill:#ffffff;fill-opacity:1;fill-rule:evenodd;stroke:#000000;stroke-width:1px;stroke-linecap:butt;stroke-linejoin:round;stroke-opacity:1"/>
        <path transform="matrix(9.230916e-2,-28.124847,5.8749679,1.9282357e-2,-3818.105,-9067.9794)" d="M -344.33576,601.45532 A 0.063134536,0.50507629 0 1 1 -344.46203,601.45532 A 0.063134536,0.50507629 0 1 1 -344.33576,601.45532 z" id="path4619" style="fill:#000000;fill-opacity:1;fill-rule:nonzero;stroke:none;stroke-width:7.08661413;stroke-linecap:round;stroke-linejoin:round;stroke-miterlimit:4;stroke-dasharray:none;stroke-dashoffset:0;stroke-opacity:1"/>
        <path transform="matrix(9.230916e-2,-28.124847,5.8749679,1.9282357e-2,-3804.5077,-9075.1242)" d="M -344.33576,601.45532 A 0.063134536,0.50507629 0 1 1 -344.46203,601.45532 A 0.063134536,0.50507629 0 1 1 -344.33576,601.45532 z" id="path4621" style="fill:#000000;fill-opacity:1;fill-rule:nonzero;stroke:none;stroke-width:7.08661413;stroke-linecap:round;stroke-linejoin:round;stroke-miterlimit:4;stroke-dasharray:none;stroke-dashoffset:0;stroke-opacity:1"/>
        <path transform="matrix(9.230916e-2,-28.124847,5.8749679,1.9282357e-2,-3803.5893,-9085.6015)" d="M -344.33576,601.45532 A 0.063134536,0.50507629 0 1 1 -344.46203,601.45532 A 0.063134536,0.50507629 0 1 1 -344.33576,601.45532 z" id="path4623" style="fill:#000000;fill-opacity:1;fill-rule:nonzero;stroke:none;stroke-width:7.08661413;stroke-linecap:round;stroke-linejoin:round;stroke-miterlimit:4;stroke-dasharray:none;stroke-dashoffset:0;stroke-opacity:1"/>
        <path transform="matrix(9.230916e-2,-28.124847,5.8749679,1.9282357e-2,-3807.4825,-9092.0542)" d="M -344.33576,601.45532 A 0.063134536,0.50507629 0 1 1 -344.46203,601.45532 A 0.063134536,0.50507629 0 1 1 -344.33576,601.45532 z" id="path4625" style="fill:#000000;fill-opacity:1;fill-rule:nonzero;stroke:none;stroke-width:7.08661413;stroke-linecap:round;stroke-linejoin:round;stroke-miterlimit:4;stroke-dasharray:none;stroke-dashoffset:0;stroke-opacity:1"/>
        <path transform="matrix(9.230916e-2,-28.124847,5.8749679,1.9282357e-2,-3817.8369,-9091.9618)" d="M -344.33576,601.45532 A 0.063134536,0.50507629 0 1 1 -344.46203,601.45532 A 0.063134536,0.50507629 0 1 1 -344.33576,601.45532 z" id="path4627" style="fill:#000000;fill-opacity:1;fill-rule:nonzero;stroke:none;stroke-width:7.08661413;stroke-linecap:round;stroke-linejoin:round;stroke-miterlimit:4;stroke-dasharray:none;stroke-dashoffset:0;stroke-opacity:1"/>
        <path transform="matrix(9.230916e-2,-28.124847,5.8749679,1.9282357e-2,-3813.4399,-9085.1289)" d="M -344.33576,601.45532 A 0.063134536,0.50507629 0 1 1 -344.46203,601.45532 A 0.063134536,0.50507629 0 1 1 -344.33576,601.45532 z" id="path4629" style="fill:#000000;fill-opacity:1;fill-rule:nonzero;stroke:none;stroke-width:7.08661413;stroke-linecap:round;stroke-linejoin:round;stroke-miterlimit:4;stroke-dasharray:none;stroke-dashoffset:0;stroke-opacity:1"/>
        <path transform="matrix(28.068897,-1.7755417,0.3708909,5.8632806,9119.7332,-3520.856)" d="M -344.33576,601.45532 A 0.063134536,0.50507629 0 1 1 -344.46203,601.45532 A 0.063134536,0.50507629 0 1 1 -344.33576,601.45532 z" id="path4631" style="fill:#000000;fill-opacity:1;fill-rule:nonzero;stroke:none;stroke-width:7.08661413;stroke-linecap:round;stroke-linejoin:round;stroke-miterlimit:4;stroke-dasharray:none;stroke-dashoffset:0;stroke-opacity:1"/>
        <g transform="translate(-29.420693,24.622468)" id="g4635">
          <path style="fill:#ffffff;fill-opacity:1;fill-rule:evenodd;stroke:#000000;stroke-width:1px;stroke-linecap:butt;stroke-linejoin:round;stroke-opacity:1" d="M -318.70313,590.72246 L -318.45059,611.05179 L -302.79323,621.91093 L -286.50452,611.55686 L -286.75705,592.2377 L -302.03561,582.13617 L -318.70313,590.72246 z" id="path4637"/>
          <path style="fill:#cccccc;fill-opacity:1;fill-rule:evenodd;stroke:#000000;stroke-width:1px;stroke-linecap:butt;stroke-linejoin:round;stroke-opacity:1" d="M -318.70313,591.22754 L -302.79323,601.45534 L -302.54069,621.91093 L -318.57686,610.79925 L -318.70313,591.22754 z" id="path4639"/>
          <path style="fill:#ececec;fill-opacity:1;fill-rule:evenodd;stroke:#000000;stroke-width:1px;stroke-linecap:butt;stroke-linejoin:round;stroke-opacity:1" d="M -302.41442,621.65839 L -286.25198,611.4306 L -286.88332,592.2377 L -302.79323,601.2028 L -302.41442,621.65839 z" id="path4641"/>
          <path style="opacity:1;fill:#000000;fill-opacity:1;fill-rule:nonzero;stroke:none;stroke-width:7.08661413;stroke-linecap:round;stroke-linejoin:round;stroke-miterlimit:4;stroke-dasharray:none;stroke-dashoffset:0;stroke-opacity:1" id="path4643" d="M -344.33576,601.45532 A 0.063134536,0.50507629 0 1 1 -344.46203,601.45532 A 0.063134536,0.50507629 0 1 1 -344.33576,601.45532 z" transform="matrix(28.124999,0,0,5.8749996,9371.1852,-2934.6829)"/>
          <path style="opacity:1;fill:#000000;fill-opacity:1;fill-rule:nonzero;stroke:none;stroke-width:7.08661413;stroke-linecap:round;stroke-linejoin:round;stroke-miterlimit:4;stroke-dasharray:none;stroke-dashoffset:0;stroke-opacity:1" id="path4645" d="M -344.33576,601.45532 A 0.063134536,0.50507629 0 1 1 -344.46203,601.45532 A 0.063134536,0.50507629 0 1 1 -344.33576,601.45532 z" transform="matrix(28.124999,0,0,5.8749996,9378.3746,-2921.1091)"/>
          <path style="opacity:1;fill:#000000;fill-opacity:1;fill-rule:nonzero;stroke:none;stroke-width:7.08661413;stroke-linecap:round;stroke-linejoin:round;stroke-miterlimit:4;stroke-dasharray:none;stroke-dashoffset:0;stroke-opacity:1" id="path4647" d="M -344.33576,601.45532 A 0.063134536,0.50507629 0 1 1 -344.46203,601.45532 A 0.063134536,0.50507629 0 1 1 -344.33576,601.45532 z" transform="matrix(28.124999,0,0,5.8749996,9388.8549,-2920.2251)"/>
          <path style="opacity:1;fill:#000000;fill-opacity:1;fill-rule:nonzero;stroke:none;stroke-width:7.08661413;stroke-linecap:round;stroke-linejoin:round;stroke-miterlimit:4;stroke-dasharray:none;stroke-dashoffset:0;stroke-opacity:1" id="path4649" d="M -344.33576,601.45532 A 0.063134536,0.50507629 0 1 1 -344.46203,601.45532 A 0.063134536,0.50507629 0 1 1 -344.33576,601.45532 z" transform="matrix(28.124999,0,0,5.8749996,9395.2947,-2924.1395)"/>
          <path style="opacity:1;fill:#000000;fill-opacity:1;fill-rule:nonzero;stroke:none;stroke-width:7.08661413;stroke-linecap:round;stroke-linejoin:round;stroke-miterlimit:4;stroke-dasharray:none;stroke-dashoffset:0;stroke-opacity:1" id="path4651" d="M -344.33576,601.45532 A 0.063134536,0.50507629 0 1 1 -344.46203,601.45532 A 0.063134536,0.50507629 0 1 1 -344.33576,601.45532 z" transform="matrix(28.124999,0,0,5.8749996,9395.1684,-2934.4935)"/>
          <path style="opacity:1;fill:#000000;fill-opacity:1;fill-rule:nonzero;stroke:none;stroke-width:7.08661413;stroke-linecap:round;stroke-linejoin:round;stroke-miterlimit:4;stroke-dasharray:none;stroke-dashoffset:0;stroke-opacity:1" id="path4653" d="M -344.33576,601.45532 A 0.063134536,0.50507629 0 1 1 -344.46203,601.45532 A 0.063134536,0.50507629 0 1 1 -344.33576,601.45532 z" transform="matrix(28.124999,0,0,5.8749996,9388.3499,-2930.0741)"/>
          <path style="opacity:1;fill:#000000;fill-opacity:1;fill-rule:nonzero;stroke:none;stroke-width:7.08661413;stroke-linecap:round;stroke-linejoin:round;stroke-miterlimit:4;stroke-dasharray:none;stroke-dashoffset:0;stroke-opacity:1" id="path4655" d="M -344.33576,601.45532 A 0.063134536,0.50507629 0 1 1 -344.46203,601.45532 A 0.063134536,0.50507629 0 1 1 -344.33576,601.45532 z" transform="matrix(1.8676572,28.062919,-5.8620318,0.3901328,3866.5549,10021.292)"/>
        </g>
      </g>
    </g>
  </g>
</svg>