<svg id="visual" viewBox="0 0 900 600" width="900" height="600" xmlns="http://www.w3.org/2000/svg" xmlns:xlink="http://www.w3.org/1999/xlink" version="1.1"><rect x="0" y="0" width="900" height="600" fill="#0b2942"></rect><defs><linearGradient id="grad1_0" x1="33.3%" y1="100%" x2="100%" y2="0%"><stop offset="20%" stop-color="#0b2942" stop-opacity="1"></stop><stop offset="80%" stop-color="#0b2942" stop-opacity="1"></stop></linearGradient></defs><defs><linearGradient id="grad2_0" x1="0%" y1="100%" x2="66.7%" y2="0%"><stop offset="20%" stop-color="#0b2942" stop-opacity="1"></stop><stop offset="80%" stop-color="#0b2942" stop-opacity="1"></stop></linearGradient></defs><g transform="translate(900, 600)"><path d="M-486.7 0C-461.8 -61.1 -436.8 -122.3 -401.9 -166.5C-367 -210.7 -322.1 -238 -288.5 -288.5C-254.9 -339 -232.5 -412.8 -186.3 -449.7C-140.1 -486.6 -70 -486.7 0 -486.7L0 0Z" fill="#084d81"></path></g><g transform="translate(0, 0)"><path d="M486.7 0C439.2 46.6 391.7 93.3 375.1 155.4C358.5 217.5 372.8 295 344.2 344.2C315.6 393.4 244 414.3 179.5 433.3C115 452.3 57.5 469.5 0 486.7L0 0Z" fill="#084d81"></path></g></svg>